<?xml version="1.0" encoding="UTF-8"?>
<svg id="Layer_1" xmlns="http://www.w3.org/2000/svg" viewBox="0 0 1080 1080">
  <path d="M260.76,812.68c77.52-179.78,201.64-334.5,302.83-500.62,9.98-16.94,20.07-34.43,27.7-52.32,2.35-5.56,4.3-11.1,5.27-15.42,0,0,3.13-6.54,3.13-6.54,15.48-30.19,60.28-12.8,51.19,20-11.69,38.09-24.05,80.19-35.01,118.67-22.31,77.82-44.56,159.87-65.41,238.32-10.37,39.83-19.89,79.85-26.01,120.58-.26,1.81-1.95,3.07-3.76,2.81-73.19-15.04-145.72-35.44-218.93-49.07-62.96-11.12-146.78-24.16-205.26,5.1-29.93,14.25-55.13-24.1-30.28-46.16,47.37-38.78,121.13-56.45,179.5-70.81,256.54-56.04,521.88-86,773.03-164.91.79-.24,1.63.2,1.88.99.24.79-.2,1.63-.99,1.88-115.29,38.96-233.26,69.51-351.79,96.86-117.11,27.34-238.55,51.54-355.37,80.07-38.97,9.65-77.89,20.06-115.78,33.04-28.02,9.66-55.61,20.27-80.72,35.57-8.14,4.98-15.83,10.46-22.53,16.6,0,0-12.98-19.78-12.98-19.78,9.35-3.85,18.95-6.8,28.63-8.99,66.3-13.75,133.99,1.37,198.23,17.66,72.41,19.13,142.67,44.54,214.54,64.98,0,0-4.37,2.69-4.37,2.69,2.34-10.01,4.46-20.07,6.7-30.1,24.43-116.07,48.45-246.97,70.69-363.3,3.78-20,13.04-70.55,16.85-91,0,0,23.28,5.77,23.28,5.77-2.37,7.71-5.42,14.54-8.66,21.15-9.6,19.26-21.32,37.28-33.14,54.97-47.33,69.29-99.27,135.04-148.86,202.48-65.7,89.65-131.77,180.03-180.88,280.09-.36.75-1.25,1.06-2,.7-.73-.35-1.05-1.22-.72-1.96h0Z"/>
</svg>